<?xml version="1.0" standalone="no"?>
<!DOCTYPE svg PUBLIC "-//W3C//DTD SVG 20010904//EN"
 "http://www.w3.org/TR/2001/REC-SVG-20010904/DTD/svg10.dtd">
<svg version="1.0" xmlns="http://www.w3.org/2000/svg"
 width="818.000000pt" height="1280.000000pt" viewBox="0 0 818.000000 1280.000000"
 preserveAspectRatio="xMidYMid meet">
<metadata>
Created by potrace 1.15, written by Peter Selinger 2001-2017
</metadata>
<g transform="translate(0.000000,1280.000000) scale(0.100000,-0.100000)"
fill="#000000" stroke="none">
<path d="M4180 12683 c-161 -221 -192 -268 -245 -378 -63 -129 -91 -228 -105
-374 -14 -144 -5 -228 27 -263 57 -61 203 -97 396 -98 137 0 140 2 188 104 89
189 76 477 -35 793 -35 98 -97 249 -127 305 l-14 28 -85 -117z"/>
<path d="M2306 12433 c8 -26 39 -147 69 -269 61 -248 96 -357 146 -457 46 -93
125 -179 197 -214 52 -26 67 -28 167 -28 92 0 118 4 157 22 70 32 131 94 164
166 24 54 28 75 28 157 1 83 -3 102 -26 152 -35 75 -104 147 -203 213 -125 83
-213 122 -548 245 -76 28 -145 54 -152 56 -11 5 -11 -3 1 -43z"/>
<path d="M5840 12059 c-32 -27 -170 -96 -340 -171 -339 -148 -447 -245 -481
-432 -32 -171 47 -338 190 -405 78 -36 217 -42 285 -13 68 31 112 68 162 138
129 181 217 475 231 772 7 144 3 152 -47 111z"/>
<path d="M2575 11178 c-15 -40 -54 -131 -85 -203 -141 -320 -174 -441 -174
-640 0 -171 9 -197 86 -249 134 -91 331 -102 478 -27 79 40 88 58 99 181 24
282 -58 580 -232 840 -56 84 -125 170 -136 170 -4 0 -21 -33 -36 -72z"/>
<path d="M3342 11222 c-21 -7 -14 -20 127 -232 81 -124 178 -259 214 -301 110
-129 255 -228 406 -280 l55 -19 53 32 c99 60 189 151 229 233 34 68 36 79 32
147 -5 91 -26 137 -94 204 -90 88 -260 158 -484 199 -100 18 -494 31 -538 17z"/>
<path d="M755 10855 c-183 -21 -201 -26 -196 -55 11 -79 112 -222 248 -350
207 -196 437 -310 603 -298 175 13 265 143 285 412 l7 97 -28 30 c-68 71 -192
126 -354 155 -119 22 -415 27 -565 9z"/>
<path d="M4908 10673 c-45 -7 -101 -149 -318 -803 -154 -465 -192 -564 -290
-765 -158 -324 -362 -556 -603 -685 l-77 -42 -68 37 c-152 83 -320 238 -692
634 -80 85 -199 202 -265 260 -249 217 -277 246 -360 361 -46 63 -96 127 -112
141 -74 69 -153 78 -229 27 -43 -29 -49 -38 -52 -73 -11 -125 45 -215 268
-435 92 -91 220 -230 285 -310 431 -532 717 -992 912 -1467 56 -138 155 -424
148 -431 -2 -2 -34 6 -72 17 -149 44 -240 55 -438 55 -218 -1 -365 -21 -577
-79 -143 -40 -415 -134 -497 -172 -101 -48 -151 -108 -151 -183 l0 -40 73 7
c39 5 194 8 342 7 289 0 369 -9 570 -60 556 -142 937 -521 1091 -1082 67 -245
93 -542 75 -845 -8 -124 -17 -199 -25 -212 -8 -11 -88 -105 -180 -210 -91
-104 -190 -224 -220 -265 -53 -74 -119 -190 -113 -197 2 -1 64 2 138 8 234 19
480 -3 645 -60 146 -50 207 -91 345 -232 86 -89 132 -129 148 -129 33 0 95 35
126 72 15 17 58 96 95 174 79 162 116 204 210 231 30 8 56 16 58 18 1 1 -18
44 -42 96 -48 101 -96 250 -151 471 -39 152 -54 315 -55 568 0 278 -25 440
-140 910 -97 395 -110 477 -110 689 0 369 89 684 280 993 84 134 169 239 314
384 168 168 246 222 561 389 216 115 407 234 474 296 33 30 33 32 21 73 -39
130 -105 226 -178 258 l-42 19 -48 -32 c-74 -51 -220 -163 -427 -328 -458
-366 -745 -512 -1077 -546 -81 -9 -76 -22 -48 155 50 308 122 537 351 1116
219 556 285 766 323 1024 l16 105 -23 18 c-69 55 -133 79 -189 70z"/>
<path d="M5650 10515 c-19 -21 -96 -89 -170 -153 -74 -63 -161 -140 -193 -171
-158 -151 -242 -314 -266 -511 l-8 -75 34 -47 c49 -67 129 -137 191 -166 70
-32 163 -28 236 8 63 32 154 132 199 218 89 171 121 321 114 532 -5 159 -18
224 -70 333 l-32 68 -35 -36z"/>
<path d="M3533 10288 c-81 -91 -185 -308 -242 -503 -57 -197 -66 -420 -22
-536 48 -126 136 -183 281 -183 87 1 223 31 266 59 39 25 59 137 59 320 -1
140 -4 172 -27 261 -47 177 -122 345 -230 512 -33 50 -61 92 -62 92 -2 0 -12
-10 -23 -22z"/>
<path d="M7289 10105 c-3 -2 -117 -20 -254 -40 -371 -54 -482 -80 -606 -146
-151 -81 -220 -220 -190 -384 25 -134 124 -262 234 -303 134 -51 261 -17 384
100 115 111 185 217 347 527 57 109 111 210 121 224 17 27 17 27 -7 27 -14 0
-27 -2 -29 -5z"/>
<path d="M1235 9699 c-178 -24 -362 -88 -595 -206 -79 -40 -148 -77 -153 -82
-10 -10 303 -194 455 -265 202 -96 391 -135 565 -115 47 5 94 14 105 20 28 15
84 138 104 227 32 144 -1 322 -68 366 -67 44 -283 73 -413 55z"/>
<path d="M6460 8770 c-139 -27 -206 -146 -217 -385 l-6 -130 55 -37 c145 -96
332 -161 543 -189 159 -21 509 1 542 34 8 9 -70 137 -124 205 -72 90 -221 238
-308 306 -184 145 -368 219 -485 196z"/>
<path d="M751 8549 c-176 -37 -327 -110 -496 -239 -113 -86 -245 -199 -245
-209 0 -5 35 -23 78 -41 278 -118 580 -174 810 -152 179 18 208 27 241 75 33
49 56 112 65 182 14 106 -40 292 -108 373 l-28 32 -111 -1 c-70 0 -147 -8
-206 -20z"/>
<path d="M1670 8475 c-8 -2 -41 -7 -73 -10 -58 -7 -59 -7 -52 -33 35 -140 234
-389 426 -533 301 -227 531 -221 643 15 35 73 66 190 66 248 0 68 -170 191
-342 247 -144 48 -244 62 -453 66 -110 2 -207 2 -215 0z"/>
<path d="M5583 8150 c-103 -24 -222 -122 -266 -217 -34 -74 -31 -190 6 -265
75 -153 314 -296 631 -378 118 -30 342 -67 352 -57 3 3 -8 29 -25 58 -16 30
-66 162 -111 293 -88 261 -139 370 -206 446 -95 104 -246 152 -381 120z"/>
<path d="M1163 7375 c-185 -33 -325 -108 -464 -247 -69 -68 -344 -406 -337
-413 2 -2 48 -13 103 -25 220 -47 534 -35 722 26 381 124 453 362 194 637 -33
34 -39 37 -91 36 -30 0 -87 -7 -127 -14z"/>
<path d="M5070 6742 c-167 -45 -247 -143 -257 -317 -12 -184 61 -286 229 -321
167 -35 460 41 648 169 54 37 351 325 341 332 -20 12 -333 97 -446 120 -172
37 -415 45 -515 17z"/>
<path d="M2065 6702 c-154 -97 -247 -437 -216 -790 15 -170 65 -372 91 -372
22 0 178 130 261 218 260 274 395 563 345 736 -38 131 -160 201 -381 221 -58
5 -75 3 -100 -13z"/>
<path d="M5845 4807 c-2 -7 -18 -61 -35 -122 -17 -60 -33 -117 -36 -126 -3
-10 -25 -21 -58 -28 -30 -7 -91 -30 -136 -52 l-82 -39 -120 74 -120 74 -76
-80 c-118 -123 -116 -101 -23 -232 l80 -113 -28 -69 c-16 -38 -35 -98 -42
-134 -6 -36 -14 -68 -18 -72 -3 -4 -62 -27 -131 -51 -97 -34 -126 -48 -127
-63 -2 -10 5 -71 15 -134 l17 -115 105 -6 c58 -4 122 -7 142 -8 34 -1 39 -5
68 -60 18 -33 54 -87 82 -121 l49 -62 -45 -134 -44 -134 91 -53 c154 -91 131
-90 201 -11 34 38 77 85 96 106 l35 36 80 -14 c44 -8 108 -14 143 -12 l62 4
76 -118 c67 -104 79 -118 98 -112 81 26 226 88 226 98 0 6 -11 68 -23 138
l-23 126 71 69 c40 38 84 87 99 109 l26 40 113 -12 c61 -7 126 -13 143 -13
l31 -1 38 125 c21 69 37 127 34 129 -2 2 -59 33 -126 70 l-123 67 -1 72 c0 40
-9 104 -19 142 l-18 70 100 101 100 101 -71 106 c-39 58 -74 107 -78 110 -4 2
-66 -20 -136 -50 l-128 -54 -40 32 c-35 28 -162 98 -198 110 -9 3 -18 47 -30
144 l-16 140 -55 6 c-131 16 -211 18 -215 6z m139 -741 c28 -18 75 -45 104
-60 l52 -26 0 -53 c0 -28 7 -81 15 -115 l15 -64 -82 -89 c-80 -86 -84 -89
-118 -84 -19 3 -74 8 -122 12 l-88 6 -26 46 c-15 25 -44 69 -65 97 l-39 51 24
64 c13 35 29 87 35 115 12 50 13 51 67 68 30 9 78 28 107 42 29 13 56 24 61
24 5 0 32 -15 60 -34z"/>
<path d="M3927 3743 c-3 -5 -23 -75 -46 -158 -54 -195 -52 -191 -98 -200 -62
-11 -172 -52 -240 -90 l-65 -36 -154 96 c-85 52 -158 95 -162 94 -13 -1 -227
-241 -226 -253 1 -7 47 -76 104 -154 l103 -143 -32 -69 c-18 -38 -41 -108 -52
-157 -11 -48 -23 -99 -27 -111 -6 -20 -33 -33 -171 -82 -90 -32 -167 -62 -171
-67 -3 -4 5 -83 18 -174 l25 -166 185 -10 c102 -5 187 -14 189 -19 14 -41 106
-185 150 -233 29 -33 53 -64 53 -69 0 -6 -25 -85 -56 -177 -33 -95 -53 -170
-48 -175 9 -8 284 -170 289 -170 2 0 57 62 124 139 l121 138 62 -15 c38 -9
113 -16 189 -16 l126 -1 97 -152 c54 -84 101 -153 104 -153 7 0 315 119 318
123 1 1 -13 83 -31 182 l-33 180 37 29 c57 46 158 154 188 202 32 51 14 49
231 26 147 -16 164 -16 172 -2 4 8 27 78 50 155 23 77 44 145 46 150 2 6 -70
50 -161 100 l-165 89 0 76 c0 84 -13 170 -37 244 l-15 48 131 132 131 132 -95
139 c-53 77 -99 141 -103 143 -5 1 -73 -25 -153 -59 -79 -33 -154 -65 -165
-69 -17 -7 -34 1 -80 36 -60 45 -225 134 -250 134 -15 0 -18 13 -39 200 -9 74
-18 144 -20 156 -4 19 -15 22 -157 32 -180 14 -185 14 -191 5z m171 -962 c31
-21 89 -55 129 -74 l71 -36 6 -58 c3 -32 14 -102 24 -155 l19 -97 -69 -68
c-38 -37 -86 -90 -106 -116 -34 -44 -40 -48 -67 -42 -16 4 -86 10 -155 14
l-125 6 -30 49 c-16 26 -57 84 -89 129 l-59 81 18 45 c25 65 65 200 65 221 0
25 15 34 95 60 39 13 97 36 130 52 33 15 66 28 73 28 7 0 39 -17 70 -39z"/>
<path d="M6543 2883 l-68 -207 -79 -17 c-95 -21 -178 -50 -270 -96 l-68 -34
-182 120 -181 121 -146 -146 -147 -146 123 -182 123 -181 -34 -68 c-43 -85
-91 -226 -100 -295 -4 -33 -13 -56 -23 -61 -9 -5 -99 -34 -201 -66 -102 -32
-190 -63 -196 -69 -8 -8 -4 -65 13 -205 12 -107 25 -196 27 -198 2 -3 100 -13
218 -23 117 -10 214 -19 214 -19 1 -1 18 -36 38 -78 41 -85 97 -172 161 -248
l42 -50 -78 -205 c-42 -113 -76 -206 -76 -206 17 -13 328 -205 338 -209 9 -3
68 52 162 154 l148 159 72 -19 c87 -22 271 -41 330 -33 l42 5 110 -186 c60
-103 112 -188 115 -190 3 -2 91 27 195 64 161 57 190 70 188 87 0 10 -14 108
-29 218 -27 196 -27 199 -8 213 10 7 49 38 86 69 57 48 89 82 195 211 l18 22
214 -30 c117 -17 214 -29 216 -27 1 2 30 82 63 179 34 96 64 182 67 191 5 12
-40 42 -183 127 l-189 111 -6 143 c-4 98 -12 167 -26 222 l-22 80 48 44 c26
25 98 93 159 152 l111 107 -102 162 c-56 88 -107 166 -113 172 -7 7 -66 -11
-210 -66 l-200 -77 -90 68 c-49 37 -134 90 -188 117 -55 26 -100 50 -102 51
-1 1 -11 98 -21 214 -11 117 -21 215 -24 217 -6 6 -329 44 -374 44 l-32 0 -68
-207z m227 -942 c38 -28 106 -71 153 -96 93 -50 97 -57 97 -165 0 -25 7 -90
17 -146 l16 -101 -134 -134 -134 -134 -65 12 c-36 8 -117 17 -180 21 l-115 7
-50 87 c-27 49 -72 119 -99 158 l-49 70 36 87 c20 49 47 126 60 173 l24 85 74
23 c41 13 117 40 169 62 52 21 99 39 104 39 4 1 39 -21 76 -48z"/>
</g>
</svg>
