<?xml version="1.0" standalone="no"?>
<!DOCTYPE svg PUBLIC "-//W3C//DTD SVG 20010904//EN"
 "http://www.w3.org/TR/2001/REC-SVG-20010904/DTD/svg10.dtd">
<svg version="1.0" xmlns="http://www.w3.org/2000/svg"
 width="360.000000pt" height="366.000000pt" viewBox="0 0 360.000000 366.000000"
 preserveAspectRatio="xMidYMid meet">

<g transform="translate(0.000000,366.000000) scale(0.100000,-0.100000)"
fill="#000000" stroke="none">
<path d="M3133 3284 c-4 -11 17 -39 64 -87 38 -40 136 -145 217 -234 81 -90
154 -163 162 -163 43 0 21 36 -102 166 -71 74 -169 180 -217 234 -87 99 -112
115 -124 84z m192 -182 c-2 -3 3 -11 13 -19 12 -10 8 -10 -15 2 -27 13 -63 58
-63 80 0 3 16 -9 35 -26 19 -18 33 -34 30 -37z"/>
<path d="M540 2735 l-24 -25 40 -43 c21 -23 80 -85 129 -137 50 -52 135 -143
190 -203 77 -83 102 -104 110 -94 5 8 20 19 33 26 23 12 23 13 4 29 -11 9 -98
92 -193 183 -96 92 -196 187 -223 212 -26 25 -46 50 -45 56 2 6 29 -13 59 -41
48 -44 383 -364 402 -383 3 -4 14 -3 23 2 13 8 -2 25 -83 99 -54 49 -112 100
-128 113 -16 13 -82 71 -146 128 -64 56 -118 103 -120 103 -3 0 -15 -11 -28
-25z"/>
<path d="M1496 2667 c3 -10 9 -15 12 -12 3 3 0 11 -7 18 -10 9 -11 8 -5 -6z"/>
<path d="M1955 2600 c-3 -6 1 -7 9 -4 18 7 21 14 7 14 -6 0 -13 -4 -16 -10z"/>
<path d="M2410 2296 c0 -2 8 -10 18 -17 15 -13 16 -12 3 4 -13 16 -21 21 -21
13z"/>
<path d="M2440 2256 c0 -2 8 -10 18 -17 15 -13 16 -12 3 4 -13 16 -21 21 -21
13z"/>
<path d="M2500 2186 c0 -2 8 -10 18 -17 15 -13 16 -12 3 4 -13 16 -21 21 -21
13z"/>
<path d="M2630 1961 c0 -6 4 -13 10 -16 6 -3 7 1 4 9 -7 18 -14 21 -14 7z"/>
<path d="M2761 1754 c0 -11 3 -14 6 -6 3 7 2 16 -1 19 -3 4 -6 -2 -5 -13z"/>
<path d="M350 1550 c0 -5 7 -10 15 -10 8 0 15 5 15 10 0 6 -7 10 -15 10 -8 0
-15 -4 -15 -10z"/>
<path d="M415 1518 c-30 -16 -45 -39 -45 -70 0 -65 88 -94 129 -42 34 43 24
86 -26 112 -26 14 -32 14 -58 0z m77 -44 c8 -18 9 -31 2 -42 -40 -63 -130 -19
-94 47 17 32 77 29 92 -5z"/>
<path d="M370 1345 c0 -14 6 -25 13 -25 20 0 25 9 20 31 -8 28 -33 24 -33 -6z"/>
<path d="M572 1290 c0 -14 2 -19 5 -12 2 6 2 18 0 25 -3 6 -5 1 -5 -13z"/>
<path d="M441 995 c-1 -24 25 -65 41 -65 7 0 4 6 -5 13 -10 6 -21 26 -26 42
-7 21 -10 24 -10 10z"/>
<path d="M685 999 c-4 -6 -5 -12 -2 -15 2 -3 7 2 10 11 7 17 1 20 -8 4z"/>
<path d="M681 959 c-1 -17 29 -49 45 -49 5 0 1 5 -9 11 -10 6 -22 20 -27 32
-6 15 -9 17 -9 6z"/>
<path d="M776 925 c-11 -8 -15 -15 -9 -15 6 0 16 7 23 15 16 19 11 19 -14 0z"/>
<path d="M2433 831 c-93 -58 -17 -227 93 -207 65 13 91 81 58 153 -31 64 -97
87 -151 54z m88 -61 c13 -8 19 -21 19 -45 0 -29 -4 -36 -27 -41 -20 -6 -31 -2
-45 16 -41 50 -4 100 53 70z"/>
<path d="M969 623 c-13 -16 -12 -17 4 -4 9 7 17 15 17 17 0 8 -8 3 -21 -13z"/>
<path d="M1975 538 c-72 -86 33 -223 140 -182 21 8 45 56 45 89 0 64 -59 125
-120 125 -31 0 -44 -6 -65 -32z m110 -54 c34 -35 -3 -103 -42 -78 -28 17 -43
55 -32 76 12 22 52 23 74 2z"/>
<path d="M1438 453 c7 -3 16 -2 19 1 4 3 -2 6 -13 5 -11 0 -14 -3 -6 -6z"/>
</g>
</svg>
