<?xml version="1.0" standalone="no"?>
<!DOCTYPE svg PUBLIC "-//W3C//DTD SVG 20010904//EN"
 "http://www.w3.org/TR/2001/REC-SVG-20010904/DTD/svg10.dtd">
<svg version="1.0" xmlns="http://www.w3.org/2000/svg"
 width="512.000000pt" height="512.000000pt" viewBox="0 0 512.000000 512.000000"
 preserveAspectRatio="xMidYMid meet">

<g transform="translate(0.000000,512.000000) scale(0.100000,-0.100000)"
fill="#000000" stroke="none">
<path d="M400 4529 c-25 -5 -77 -25 -117 -44 -192 -95 -306 -310 -276 -520 28
-197 182 -371 370 -420 86 -23 4280 -23 4366 0 188 49 342 223 370 420 36 250
-130 495 -378 560 -52 13 -305 15 -2175 14 -1163 -1 -2135 -5 -2160 -10z"/>
<path d="M420 3059 c-229 -38 -420 -265 -420 -499 0 -239 192 -462 430 -500
90 -14 4170 -14 4260 0 238 38 430 261 430 500 0 239 -192 462 -430 500 -82
13 -4190 12 -4270 -1z"/>
<path d="M373 1575 c-240 -65 -406 -323 -365 -568 34 -204 204 -381 401 -417
74 -14 4228 -14 4302 0 197 36 367 213 401 417 41 248 -126 505 -369 568 -84
22 -4289 21 -4370 0z"/>
</g>
</svg>
